<svg width="66" height="45" viewBox="0 0 66 45" fill="none" xmlns="http://www.w3.org/2000/svg">
<path d="M49.9847 43.784C49.946 44.016 49.714 44.074 49.2887 43.958C48.902 43.8807 48.554 43.61 48.2447 43.146C47.9354 42.4113 47.7807 41.7347 47.7807 41.116C47.7807 40.4973 47.8 39.5693 47.8387 38.332C48.0707 36.9787 48.38 35.2193 48.7667 33.054C49.192 30.85 49.6754 28.3947 50.2167 25.688C50.7967 22.9427 51.4154 20.0813 52.0727 17.104C52.5367 15.5573 52.904 14.146 53.1747 12.87C53.484 11.5553 53.716 10.492 53.8707 9.68C54.0254 8.868 54.1027 8.462 54.1027 8.462C54.1027 8.346 53.9867 8.404 53.7547 8.636C53.5614 8.82933 53.368 9.06133 53.1747 9.332C52.9814 9.60267 52.904 9.81533 52.9427 9.97C52.9427 9.97 52.8074 10.1633 52.5367 10.55C52.266 10.9367 51.918 11.4587 51.4927 12.116C51.106 12.5027 50.642 13.276 50.1007 14.436C49.5594 15.596 48.96 16.6787 48.3027 17.684C47.684 18.844 47.0267 20.1007 46.3307 21.454C45.6347 22.7687 45.016 23.8707 44.4747 24.76C44.1267 25.2627 43.7787 25.8427 43.4307 26.5C43.0827 27.1573 42.87 27.5827 42.7927 27.776C42.638 28.2013 42.3674 28.7233 41.9807 29.342C41.594 29.922 41.1687 30.502 40.7047 31.082C40.4727 31.43 40.2407 31.7973 40.0087 32.184C39.7767 32.532 39.5834 32.8413 39.4287 33.112C39.3127 33.344 39.2547 33.46 39.2547 33.46C39.2547 33.576 39.0614 33.924 38.6747 34.504C38.3267 35.084 37.882 35.722 37.3407 36.418C36.838 37.114 36.3547 37.7133 35.8907 38.216C34.5374 39.6467 33.4547 40.4973 32.6427 40.768C31.8307 41 30.922 40.652 29.9167 39.724C29.414 39.1053 29.0467 38.4093 28.8147 37.636C28.5827 36.824 28.486 35.838 28.5247 34.678C28.5634 33.4793 28.6987 31.9907 28.9307 30.212C29.2014 28.8587 29.4527 27.5053 29.6847 26.152C29.9167 24.76 30.1294 23.4647 30.3227 22.266C30.5547 21.0287 30.748 19.9847 30.9027 19.134C31.096 18.2833 31.2507 17.7227 31.3667 17.452C31.444 16.6787 31.4247 16.2533 31.3087 16.176C31.1927 16.0987 30.9607 16.3307 30.6127 16.872C30.458 17.1427 30.052 17.8193 29.3947 18.902C28.7374 19.946 27.964 21.2413 27.0747 22.788C26.224 24.3347 25.3734 26.0167 24.5227 27.834C22.9374 30.7727 21.6227 33.2087 20.5787 35.142C19.5734 37.0367 18.7614 38.5447 18.1427 39.666C17.5627 40.7873 17.1374 41.6187 16.8667 42.16C16.596 42.7013 16.4027 43.0687 16.2867 43.262C16.1707 43.4553 16.074 43.5907 15.9967 43.668C15.6487 43.668 15.2814 43.5133 14.8947 43.204C14.5467 42.9333 14.1794 42.6047 13.7927 42.218C13.6767 41.9473 13.6187 41.6767 13.6187 41.406C13.6574 41.1353 13.7927 40.7487 14.0247 40.246C14.2567 39.7047 14.6047 38.8927 15.0687 37.81C15.5714 36.8047 16.0354 35.9347 16.4607 35.2C16.886 34.4267 17.2147 33.9627 17.4467 33.808C17.64 33.4987 17.814 33.1893 17.9687 32.88C18.1234 32.5707 18.22 32.2033 18.2587 31.778C18.452 31.546 18.742 31.082 19.1287 30.386C19.554 29.6513 19.9794 28.8587 20.4047 28.008C20.714 27.5053 21.1007 26.848 21.5647 26.036C22.0674 25.224 22.5894 24.3347 23.1307 23.368C23.672 22.3627 24.1554 21.4153 24.5807 20.526C26.3594 17.4713 27.8674 14.9 29.1047 12.812C30.342 10.6853 31.27 9.332 31.8887 8.752C32.082 8.55866 32.2754 8.288 32.4687 7.94C32.7007 7.592 32.8167 7.28266 32.8167 7.012C32.8167 6.2 32.9714 5.46533 33.2807 4.808C33.6287 4.112 33.9767 3.80267 34.3247 3.88C34.7114 3.88 35.0594 3.91866 35.3687 3.996C35.678 4.07333 36.0067 4.32467 36.3547 4.75C36.664 5.214 36.9347 5.678 37.1667 6.142C37.3987 6.606 37.3794 7.534 37.1087 8.926C37.1087 9.46733 37.0507 10.086 36.9347 10.782C36.8187 11.4393 36.7027 12.058 36.5867 12.638C36.5094 13.1793 36.4514 13.6047 36.4127 13.914C35.91 15.422 35.446 17.1233 35.0207 19.018C34.5954 20.874 34.2087 22.7687 33.8607 24.702C33.5127 26.5967 33.2227 28.3753 32.9907 30.038C32.7587 31.662 32.604 33.0153 32.5267 34.098C32.488 35.142 32.5267 35.7413 32.6427 35.896C32.9134 36.0507 33.1454 36.07 33.3387 35.954C33.532 35.838 33.8607 35.3353 34.3247 34.446C34.5954 33.982 34.9627 33.4213 35.4267 32.764C35.9294 32.068 36.4127 31.43 36.8767 30.85C37.186 30.3087 37.6694 29.4967 38.3267 28.414C38.984 27.3313 39.8154 25.9393 40.8207 24.238C41.8647 22.5367 43.102 20.468 44.5327 18.032C46.002 15.5573 47.6647 12.696 49.5207 9.448C50.41 8.09466 51.2414 6.78 52.0147 5.504C52.8267 4.18933 53.484 3.33867 53.9867 2.952C54.528 2.44933 55.0887 2.33333 55.6687 2.604C56.2487 2.836 56.7514 3.33867 57.1767 4.112C57.6407 4.88533 57.892 5.852 57.9307 7.012C57.9694 7.55333 57.892 8.42333 57.6987 9.622C57.544 10.8207 57.2927 12.1933 56.9447 13.74C56.5967 15.248 56.152 16.814 55.6107 18.438C55.4947 19.0953 55.3014 19.9267 55.0307 20.932C54.7987 21.8987 54.528 22.904 54.2187 23.948C53.9094 24.992 53.6 25.978 53.2907 26.906C53.0974 28.182 52.8654 29.4387 52.5947 30.676C52.3627 31.9133 52.2854 32.7447 52.3627 33.17C52.0147 33.7887 51.7827 34.678 51.6667 35.838C51.5507 36.998 51.4927 38.1967 51.4927 39.434C51.338 40.942 51.222 42.0053 51.1447 42.624C51.0674 43.2427 50.932 43.5327 50.7387 43.494C50.236 43.3393 49.9847 43.436 49.9847 43.784Z" fill="white"/>
<path d="M23.4202 41.8451C22.8202 41.5118 22.4869 41.1451 22.4202 40.7451C22.3869 40.3451 22.6202 39.6451 23.1202 38.6451C23.6202 37.6451 24.4036 36.0951 25.4702 33.9951C26.2702 32.4951 26.8702 31.3285 27.2702 30.4951C27.7036 29.6285 27.9869 29.0118 28.1202 28.6451C28.2869 28.2785 28.3702 28.0451 28.3702 27.9451C28.3036 27.6451 28.3369 27.4118 28.4702 27.2451C28.6036 27.0451 28.8202 26.8785 29.1202 26.7451C29.2869 26.5785 29.5536 26.2785 29.9202 25.8451C30.3202 25.4118 30.6869 24.8951 31.0202 24.2951C31.3202 23.5951 31.6702 22.8785 32.0702 22.1451C32.4702 21.4118 33.0036 20.4951 33.6702 19.3951C34.3369 18.2618 35.2036 16.7951 36.2702 14.9951C36.9369 13.8285 37.6702 12.6451 38.4702 11.4451C39.2702 10.2118 40.1202 8.99513 41.0202 7.79513C41.3869 7.32846 41.7202 6.96179 42.0202 6.69513C42.3202 6.39513 42.6202 6.26179 42.9202 6.29513C43.3202 6.29513 43.7702 6.42846 44.2702 6.69513C44.8036 6.96179 45.2869 7.31179 45.7202 7.74513C46.1536 8.17846 46.4702 8.64513 46.6702 9.14513C46.8369 9.41179 46.9036 9.97846 46.8702 10.8451C46.8369 11.7118 46.7702 12.7618 46.6702 13.9951C46.5702 15.2285 46.4536 16.5451 46.3202 17.9451C46.2202 19.3118 46.0702 20.9285 45.8702 22.7951C45.6702 24.6618 45.4702 26.6118 45.2702 28.6451C45.1036 30.6785 44.9702 32.6451 44.8702 34.5451C44.7702 36.4118 44.7702 38.0451 44.8702 39.4451C44.9036 39.7451 44.9036 40.0285 44.8702 40.2951C44.8369 40.5618 44.8202 40.7785 44.8202 40.9451C44.6202 41.1451 44.2869 41.2285 43.8202 41.1951C43.3869 41.1951 42.9536 41.0951 42.5202 40.8951C42.1202 40.6951 41.8869 40.4451 41.8202 40.1451C41.7202 40.0451 41.6536 39.9118 41.6202 39.7451C41.6202 39.5451 41.6369 39.1451 41.6702 38.5451C41.7036 37.9451 41.7369 36.9951 41.7702 35.6951L42.0202 27.5951L41.3702 27.6451C41.0702 27.6451 40.5036 27.6785 39.6702 27.7451C38.8369 27.8118 37.9369 27.9118 36.9702 28.0451C36.0036 28.1451 35.1036 28.2618 34.2702 28.3951C33.4702 28.4951 32.9202 28.5951 32.6202 28.6951C32.3202 28.6951 31.9536 28.8951 31.5202 29.2951C31.1202 29.6951 30.7369 30.2118 30.3702 30.8451C30.2369 31.3118 29.9869 31.8118 29.6202 32.3451C29.2869 32.8451 29.1202 33.1785 29.1202 33.3451C28.8869 33.5118 28.6869 33.7118 28.5202 33.9451C28.3869 34.1785 28.3202 34.2951 28.3202 34.2951C28.3202 34.4951 28.1536 34.9951 27.8202 35.7951C27.5202 36.5618 27.1369 37.4285 26.6702 38.3951C26.2036 39.3285 25.7369 40.1451 25.2702 40.8451L24.2202 42.4451L23.4202 41.8451ZM33.7702 25.7451C33.7702 25.7451 33.9369 25.7118 34.2702 25.6451C34.6369 25.5785 35.0536 25.5118 35.5202 25.4451C36.0202 25.3451 36.4702 25.2951 36.8702 25.2951C38.2702 24.9618 39.2869 24.7451 39.9202 24.6451C40.5536 24.5118 40.9869 24.4451 41.2202 24.4451C41.4869 24.4451 41.7202 24.4951 41.9202 24.5951C42.0536 24.7618 42.1702 24.8618 42.2702 24.8951C42.4036 24.9285 42.4702 24.9451 42.4702 24.9451C42.5036 24.8785 42.5536 24.4951 42.6202 23.7951C42.6869 23.0951 42.7702 22.2285 42.8702 21.1951C43.0036 20.1618 43.1202 19.0951 43.2202 17.9951C43.3536 16.8618 43.4536 15.8285 43.5202 14.8951C43.5869 13.9285 43.6369 13.1951 43.6702 12.6951C43.7036 12.0618 43.7369 11.4951 43.7702 10.9951C43.8036 10.4618 43.8202 10.1951 43.8202 10.1951C43.6202 10.1951 43.1869 10.5618 42.5202 11.2951C41.8869 12.0285 41.1702 12.9951 40.3702 14.1951C39.5702 15.3951 38.8202 16.6785 38.1202 18.0451C37.7869 18.6785 37.4702 19.2451 37.1702 19.7451C36.8702 20.2451 36.6369 20.4951 36.4702 20.4951C36.4036 20.5618 36.2036 20.8618 35.8702 21.3951C35.5702 21.8951 35.2369 22.4785 34.8702 23.1451C34.5036 23.7785 34.2036 24.3618 33.9702 24.8951C33.7369 25.3951 33.6702 25.6785 33.7702 25.7451Z" fill="white" fill-opacity="0.41"/>
</svg>
